<svg xmlns="http://www.w3.org/2000/svg" viewBox="0 0 1200 560" role="img" aria-label="Banniere Paddock Manager">
  <defs>
    <linearGradient id="bg" x1="0" x2="1" y1="0" y2="1">
      <stop offset="0%" stop-color="#0f1826"/>
      <stop offset="100%" stop-color="#0a111d"/>
    </linearGradient>
    <radialGradient id="glowBlue" cx="0.12" cy="0.58" r="0.72">
      <stop offset="0%" stop-color="#2f77ff" stop-opacity="0.24"/>
      <stop offset="100%" stop-color="#2f77ff" stop-opacity="0"/>
    </radialGradient>
    <radialGradient id="glowRed" cx="0.95" cy="0.1" r="0.65">
      <stop offset="0%" stop-color="#ff321f" stop-opacity="0.25"/>
      <stop offset="100%" stop-color="#ff321f" stop-opacity="0"/>
    </radialGradient>
    <linearGradient id="accent" x1="0" x2="1" y1="0.5" y2="0.5">
      <stop offset="0%" stop-color="#e10600"/>
      <stop offset="100%" stop-color="#ff5f4a"/>
    </linearGradient>
    <linearGradient id="glass" x1="0" x2="0" y1="0" y2="1">
      <stop offset="0%" stop-color="#ffffff" stop-opacity="0.12"/>
      <stop offset="100%" stop-color="#ffffff" stop-opacity="0"/>
    </linearGradient>
    <pattern id="grid" width="26" height="26" patternUnits="userSpaceOnUse">
      <path d="M26 0H0V26" fill="none" stroke="#ffffff" stroke-opacity="0.06" stroke-width="1"/>
    </pattern>
    <filter id="shadow" x="-20%" y="-20%" width="140%" height="140%">
      <feDropShadow dx="0" dy="10" stdDeviation="12" flood-color="#02060e" flood-opacity="0.55"/>
    </filter>
  </defs>

  <rect width="1200" height="560" rx="40" fill="url(#bg)"/>
  <rect width="1200" height="560" rx="40" fill="url(#grid)"/>
  <rect width="1200" height="560" rx="40" fill="url(#glowBlue)"/>
  <rect width="1200" height="560" rx="40" fill="url(#glowRed)"/>

  <g filter="url(#shadow)">
    <rect x="52" y="58" width="450" height="444" rx="28" fill="#121c2b" stroke="#2a3d5a" stroke-width="2"/>
    <rect x="52" y="58" width="450" height="170" rx="28" fill="url(#glass)"/>

    <path d="M122 384V170H264C325 170 360 203 360 252C360 301 325 334 264 334H202V384Z" fill="#e9eef8"/>
    <path d="M202 269H260C277 269 286 262 286 250C286 238 277 231 260 231H202Z" fill="#121c2b"/>
    <path d="M396 384V170H472L538 279L604 170H680V384H606V287L552 367H523L469 287V384Z" fill="#e9eef8"/>

    <text x="84" y="452" fill="#aeb9cb" font-size="28" font-family="Space Grotesk, Arial, sans-serif">Paddock Manager</text>
  </g>

  <g filter="url(#shadow)">
    <path d="M570 390C706 230 823 178 994 178H1090L990 300H930C835 300 762 326 680 396H570Z"
          fill="none" stroke="url(#accent)" stroke-width="34" stroke-linecap="round" stroke-linejoin="round"/>
    <path d="M590 390C717 249 826 210 980 210H1039L968 286H918C824 286 754 311 675 390H590Z"
          fill="none" stroke="#f4f7fb" stroke-opacity="0.2" stroke-width="10" stroke-linecap="round" stroke-linejoin="round"/>
    <path d="M592 390C715 254 819 218 972 218H1026L960 284H914C825 284 756 309 680 390H592Z"
          fill="none" stroke="#f4f7fb" stroke-width="3" stroke-dasharray="14 16" stroke-linecap="round"/>
  </g>

  <g fill="#f7f9fc" font-family="Space Grotesk, Arial, sans-serif">
    <text x="566" y="116" font-size="60" font-weight="700">Paddock Manager</text>
    <text x="566" y="156" font-size="28" fill="#b9c4d4">Gestion des Grands Prix, ecuries et pilotes</text>
  </g>

  <g font-family="Space Grotesk, Arial, sans-serif" font-size="24">
    <rect x="566" y="434" width="174" height="52" rx="14" fill="#1f2d42" stroke="#324866"/>
    <text x="594" y="467" fill="#d4deee">Live timing</text>

    <rect x="756" y="434" width="186" height="52" rx="14" fill="#1f2d42" stroke="#324866"/>
    <text x="780" y="467" fill="#d4deee">Calendar 2026</text>

    <rect x="958" y="434" width="118" height="52" rx="14" fill="#281820" stroke="#8b2e2e"/>
    <text x="995" y="467" fill="#ffe2de">Bets</text>
  </g>
</svg>
