<svg xmlns="http://www.w3.org/2000/svg" viewBox="0 0 96 96" role="img" aria-label="Logo Paddock Manager">
  <defs>
    <linearGradient id="bg" x1="0" x2="1" y1="0" y2="1">
      <stop offset="0%" stop-color="#1f2737"/>
      <stop offset="100%" stop-color="#121826"/>
    </linearGradient>
    <linearGradient id="accent" x1="0" x2="1" y1="0.5" y2="0.5">
      <stop offset="0%" stop-color="#e10600"/>
      <stop offset="100%" stop-color="#ff5a56"/>
    </linearGradient>
  </defs>
  <rect width="96" height="96" rx="20" fill="url(#bg)"/>
  <rect x="10" y="50" width="76" height="12" rx="6" fill="url(#accent)"/>
  <path d="M16 74 V24 H36 C45 24 50 29 50 37 C50 45 45 50 36 50 H28 V74 Z M28 38 H35 C37 38 38 37 38 35 C38 33 37 32 35 32 H28 Z" fill="#ffffff"/>
  <path d="M54 74 V24 H66 L76 43 L86 24 H88 V74 H76 V49 L70 60 H63 L57 49 V74 Z" fill="#ffffff"/>
</svg>
